<?xml version="1.0" encoding="UTF-8" standalone="no"?>
<svg
   xmlns:dc="http://purl.org/dc/elements/1.1/"
   xmlns:cc="http://creativecommons.org/ns#"
   xmlns:rdf="http://www.w3.org/1999/02/22-rdf-syntax-ns#"
   xmlns:svg="http://www.w3.org/2000/svg"
   xmlns="http://www.w3.org/2000/svg"
   xmlns:sodipodi="http://sodipodi.sourceforge.net/DTD/sodipodi-0.dtd"
   xmlns:inkscape="http://www.inkscape.org/namespaces/inkscape"
   inkscape:version="1.0rc1 (09960d6, 2020-04-09)"
   sodipodi:docname="timer.svg"
   id="svg1271"
   enable-background="new 0 0 129 129"
   viewBox="0 0 129 129"
   version="1.1">
  <metadata
     id="metadata1277">
    <rdf:RDF>
      <cc:Work
         rdf:about="">
        <dc:format>image/svg+xml</dc:format>
        <dc:type
           rdf:resource="http://purl.org/dc/dcmitype/StillImage" />
      </cc:Work>
    </rdf:RDF>
  </metadata>
  <defs
     id="defs1275" />
  <sodipodi:namedview
     inkscape:current-layer="svg1271"
     inkscape:window-maximized="1"
     inkscape:window-y="23"
     inkscape:window-x="0"
     inkscape:cy="64.5"
     inkscape:cx="-6.1654412"
     inkscape:zoom="2.1085271"
     showgrid="false"
     id="namedview1273"
     inkscape:window-height="813"
     inkscape:window-width="1440"
     inkscape:pageshadow="2"
     inkscape:pageopacity="0"
     guidetolerance="10"
     gridtolerance="10"
     objecttolerance="10"
     borderopacity="1"
     bordercolor="#666666"
     pagecolor="#ffffff" />
  <g
     style="fill:#9a93c6;fill-opacity:1;stroke:#9a93c6;stroke-opacity:1"
     id="g1269">
    <g
       style="fill:#9a93c6;fill-opacity:1;stroke:#9a93c6;stroke-opacity:1"
       id="g1267">
      <path
         style="fill:#9a93c6;fill-opacity:1;stroke:#9a93c6;stroke-opacity:1"
         id="path1263"
         d="m12.3,70.2c0,28.8 23.4,52.2 52.2,52.2s52.2-23.4 52.2-52.2c0-14.3-5.8-27.4-15.2-36.8l4.1-4.1 1.9,1.9c0.8,0.8 1.8,1.2 2.9,1.2s2.1-0.4 2.9-1.2c1.6-1.6 1.6-4.2 0-5.8l-9.5-9.5c-1.6-1.6-4.2-1.6-5.8,0-1.6,1.6-1.6,4.2 0,5.8l1.9,1.9-4.5,4.5c-7.6-5.6-16.7-9.1-26.7-9.9v-3.5h9.1c2.3,0 4.1-1.8 4.1-4.1s-1.8-4.1-4.1-4.1h-27c-2.3,0-4.1,1.8-4.1,4.1s1.8,4.1 4.1,4.1h9.7v3.5c-27,2.1-48.2,24.6-48.2,52zm52.2-44c24.3-3.55271e-15 44.1,19.8 44.1,44.1 0,24.3-19.8,44.1-44.1,44.1-24.3,0-44.1-19.8-44.1-44.1 0-24.4 19.8-44.1 44.1-44.1z" />
      <path
         style="fill:#9a93c6;fill-opacity:1;stroke:#9a93c6;stroke-opacity:1"
         id="path1265"
         d="m64.5,73.6h17.5c2.3,0 4.1-1.8 4.1-4.1 0-2.3-1.8-4.1-4.1-4.1h-13.4v-21.1c0-2.3-1.8-4.1-4.1-4.1-2.3,0-4.1,1.8-4.1,4.1v25.3c0,2.2 1.8,4 4.1,4z" />
    </g>
  </g>
</svg>
