<?xml version="1.0" standalone="no"?>
<!DOCTYPE svg PUBLIC "-//W3C//DTD SVG 20010904//EN"
 "http://www.w3.org/TR/2001/REC-SVG-20010904/DTD/svg10.dtd">
<svg version="1.0" xmlns="http://www.w3.org/2000/svg"
 width="700.000000pt" height="700.000000pt" viewBox="0 0 700.000000 700.000000"
 preserveAspectRatio="xMidYMid meet">
<metadata>
Created by potrace 1.11, written by Peter Selinger 2001-2013
</metadata>
<g transform="translate(0.000000,700.000000) scale(0.100000,-0.100000)"
fill="#000000" stroke="none">
<path d="M2695 6665 c-58 -15 -108 -49 -138 -92 -37 -54 -47 -86 -47 -152 0
-69 36 -149 84 -186 73 -56 89 -58 386 -59 l275 -1 0 -68 c0 -37 -2 -67 -5
-68 -3 0 -12 -2 -20 -3 -8 -2 -42 -6 -75 -10 -296 -31 -618 -128 -920 -277
-161 -79 -139 -67 -320 -185 -322 -212 -601 -494 -818 -826 -174 -267 -337
-657 -392 -943 -5 -22 -9 -44 -11 -50 -8 -36 -35 -216 -41 -281 -10 -99 -10
-457 0 -544 10 -97 17 -153 22 -176 3 -12 7 -39 11 -60 3 -21 17 -86 31 -144
13 -58 26 -113 28 -122 6 -26 82 -249 101 -293 9 -22 16 -41 15 -42 -3 -9 180
-354 228 -429 105 -165 237 -329 385 -478 67 -68 197 -186 241 -219 5 -4 37
-28 70 -53 133 -101 358 -237 500 -301 157 -71 184 -82 288 -117 136 -46 304
-89 427 -110 52 -9 105 -18 118 -21 134 -25 614 -26 749 -1 16 3 69 11 138 21
146 21 423 103 600 179 110 46 287 137 376 192 85 53 257 170 269 183 3 4 37
31 75 62 89 71 262 241 345 339 234 275 424 607 536 934 25 73 89 308 99 361
41 230 50 336 50 570 0 162 -10 348 -20 379 -2 6 -7 28 -10 48 -13 94 -17 115
-25 148 -5 19 -12 49 -15 67 -19 114 -118 402 -191 558 -119 254 -313 546
-479 719 -11 12 -31 33 -44 48 l-24 27 92 92 91 91 57 -56 c74 -72 129 -99
203 -99 186 1 306 195 222 360 -12 22 -142 161 -304 322 -317 318 -337 332
-442 327 -73 -3 -130 -30 -176 -82 -45 -52 -63 -99 -62 -166 0 -75 27 -129 99
-202 l57 -57 -105 -105 -104 -104 -88 60 c-48 33 -89 60 -91 60 -2 0 -35 19
-72 42 -38 23 -118 65 -179 94 -295 139 -571 220 -890 260 -33 4 -64 8 -70 9
-5 1 -15 3 -20 3 -6 1 -10 32 -10 70 l0 67 260 1 c240 0 264 2 306 21 198 89
197 367 -1 456 -44 20 -65 21 -814 21 -504 1 -784 -3 -811 -9z m1085 -1128
c31 -6 88 -15 138 -23 78 -11 281 -67 387 -106 128 -47 314 -134 392 -184 29
-19 56 -34 58 -34 5 0 177 -120 185 -129 3 -4 37 -32 75 -63 68 -55 217 -202
287 -283 257 -297 444 -688 522 -1090 54 -283 55 -598 0 -875 -8 -41 -16 -84
-18 -95 -11 -57 -73 -251 -108 -339 -234 -589 -693 -1058 -1281 -1310 -106
-45 -283 -104 -367 -121 -8 -2 -36 -8 -63 -14 -26 -6 -64 -14 -85 -17 -20 -3
-42 -7 -49 -9 -75 -25 -541 -26 -693 -1 -414 67 -760 213 -1089 459 -108 80
-339 306 -423 413 -250 317 -431 727 -483 1099 -4 22 -8 47 -10 55 -23 89 -24
499 -1 627 2 10 7 40 10 66 17 115 54 259 103 401 280 807 984 1405 1828 1552
49 9 115 18 145 21 30 2 57 6 59 8 5 6 450 -3 481 -8z"/>
<path d="M3440 4840 c-76 -21 -131 -68 -164 -140 l-26 -55 0 -735 c0 -718 1
-736 21 -780 25 -55 62 -95 114 -123 39 -22 49 -22 575 -25 479 -2 540 -1 579
14 172 66 213 297 73 422 -64 56 -100 61 -457 61 -176 0 -339 0 -362 0 l-43 1
-2 593 c-3 558 -4 594 -22 630 -51 102 -182 165 -286 137z"/>
</g>
</svg>
