<?xml version='1.0' encoding='utf-8'?>
<svg version="1.1" xmlns="http://www.w3.org/2000/svg" viewBox="0 0 129 129" xmlns:xlink="http://www.w3.org/1999/xlink" enable-background="new 0 0 129 129">
  <g>
    <g>
      <path d="m10.5,118.1h107.9c2.3,0 4.1-1.8 4.1-4.1v-91.5c0-2.3-1.8-4.1-4.1-4.1h-20.3v-3.5c0-2.3-1.8-4.1-4.1-4.1-2.3,0-4.1,1.8-4.1,4.1v3.5h-50.2v-3.5c0-2.3-1.8-4.1-4.1-4.1-2.3,0-4.1,1.8-4.1,4.1v3.5h-21c-2.3,0-4.1,1.8-4.1,4.1v91.6c0,2.2 1.9,4 4.1,4zm4.1-91.5h16.9v2.2c0,2.3 1.8,4.1 4.1,4.1 2.3,0 4.1-1.8 4.1-4.1v-2.2h50.2v2.2c0,2.3 1.8,4.1 4.1,4.1 2.3,0 4.1-1.8 4.1-4.1v-2.2h16.3v10.6h-99.8v-10.6zm0,18.8h99.7v64.6h-99.7v-64.6z"/>
      <path d="m94,64.2h-59c-2.3,0-4.1,1.8-4.1,4.1 0,2.3 1.8,4.1 4.1,4.1h59c2.3,0 4.1-1.8 4.1-4.1 0-2.3-1.8-4.1-4.1-4.1z"/>
      <path d="m64.5,84h-29.5c-2.3,0-4.1,1.8-4.1,4.1 0,2.3 1.8,4.1 4.1,4.1h29.5c2.3,0 4.1-1.8 4.1-4.1 0-2.3-1.8-4.1-4.1-4.1z"/>
    </g>
  </g>
</svg>
