<svg height="512pt" viewBox="0 0 512 511" width="512pt" xmlns="http://www.w3.org/2000/svg"><path d="m512 120.167969v272c0 33.085937-26.914062 60-60 60h-203v-40h203c11.027344 0 20-8.972657 20-20v-272c0-11.027344-8.972656-20-20-20h-72.136719l32.332031 32.332031-28.285156 28.285156-80.140625-80.144531 80.140625-80.140625 28.285156 28.285156-31.382812 31.382813h71.1875c33.085938 0 60 26.917969 60 60zm-225 223v-174h-80v40h40v134zm-187.144531 37.144531 31.859375 31.855469h-71.714844c-11.027344 0-20-8.972657-20-20v-272c0-11.027344 8.972656-20 20-20h205v-40h-205c-33.085938 0-60 26.917969-60 60v272c0 33.085937 26.914062 60 60 60h71.714844l-31.859375 31.859375 28.285156 28.285156 80.144531-80.144531-80.144531-80.144531zm0 0"/></svg>