<svg id="_x31__x2C_5" enable-background="new 0 0 24 24" height="512" viewBox="0 0 24 24" width="512" xmlns="http://www.w3.org/2000/svg"><g><path d="m16.75 12c-.192 0-.384-.073-.53-.22-.293-.293-.293-.768 0-1.061l3.501-3.501c.293-.293.768-.293 1.061 0s.293.768 0 1.061l-3.502 3.501c-.146.147-.338.22-.53.22z"/></g><g><path d="m19.25 12h-2.5c-.414 0-.75-.336-.75-.75v-2.5c0-.414.336-.75.75-.75s.75.336.75.75v1.75h1.75c.414 0 .75.336.75.75s-.336.75-.75.75z"/></g><g><path d="m12.75 24h-10.5c-1.241 0-2.25-1.01-2.25-2.25v-7.5c0-1.24 1.009-2.25 2.25-2.25h10.5c1.241 0 2.25 1.01 2.25 2.25v7.5c0 1.24-1.009 2.25-2.25 2.25zm-10.5-10.5c-.414 0-.75.337-.75.75v7.5c0 .413.336.75.75.75h10.5c.414 0 .75-.337.75-.75v-7.5c0-.413-.336-.75-.75-.75z"/></g><g><path d="m14.25 16.985h-13.5c-.414 0-.75-.336-.75-.75s.336-.75.75-.75h13.5c.414 0 .75.336.75.75s-.336.75-.75.75z"/></g><g><path d="m21.25 22h-3.5c-.414 0-.75-.336-.75-.75s.336-.75.75-.75h3.5c.689 0 1.25-.561 1.25-1.25v-16.5c0-.689-.561-1.25-1.25-1.25h-18.5c-.689 0-1.25.561-1.25 1.25v6.5c0 .414-.336.75-.75.75s-.75-.336-.75-.75v-6.5c0-1.517 1.233-2.75 2.75-2.75h18.5c1.517 0 2.75 1.233 2.75 2.75v16.5c0 1.517-1.233 2.75-2.75 2.75z"/></g><g><path d="m23.25 5h-22.5c-.414 0-.75-.336-.75-.75s.336-.75.75-.75h22.5c.414 0 .75.336.75.75s-.336.75-.75.75z"/></g></svg>