<?xml version="1.0" encoding="UTF-8" standalone="no"?>
<svg
   xmlns:dc="http://purl.org/dc/elements/1.1/"
   xmlns:cc="http://creativecommons.org/ns#"
   xmlns:rdf="http://www.w3.org/1999/02/22-rdf-syntax-ns#"
   xmlns:svg="http://www.w3.org/2000/svg"
   xmlns="http://www.w3.org/2000/svg"
   xmlns:sodipodi="http://sodipodi.sourceforge.net/DTD/sodipodi-0.dtd"
   xmlns:inkscape="http://www.inkscape.org/namespaces/inkscape"
   version="1.1"
   viewBox="0 0 129 129"
   enable-background="new 0 0 129 129"
   id="svg3737"
   sodipodi:docname="timer - Copy.svg"
   inkscape:version="0.92.3 (2405546, 2018-03-11)">
  <metadata
     id="metadata3743">
    <rdf:RDF>
      <cc:Work
         rdf:about="">
        <dc:format>image/svg+xml</dc:format>
        <dc:type
           rdf:resource="http://purl.org/dc/dcmitype/StillImage" />
      </cc:Work>
    </rdf:RDF>
  </metadata>
  <defs
     id="defs3741" />
  <sodipodi:namedview
     pagecolor="#ffffff"
     bordercolor="#666666"
     borderopacity="1"
     objecttolerance="10"
     gridtolerance="10"
     guidetolerance="10"
     inkscape:pageopacity="0"
     inkscape:pageshadow="2"
     inkscape:window-width="986"
     inkscape:window-height="722"
     id="namedview3739"
     showgrid="false"
     inkscape:zoom="3.6589147"
     inkscape:cx="65.908981"
     inkscape:cy="57.559451"
     inkscape:window-x="1554"
     inkscape:window-y="969"
     inkscape:window-maximized="0"
     inkscape:current-layer="g3735" />
  <g
     id="g3735">
    <g
       id="g3733"
       style="fill:#e6e6e6">
      <path
         d="m12.3,70.2c0,28.8 23.4,52.2 52.2,52.2s52.2-23.4 52.2-52.2c0-14.3-5.8-27.4-15.2-36.8l4.1-4.1 1.9,1.9c0.8,0.8 1.8,1.2 2.9,1.2s2.1-0.4 2.9-1.2c1.6-1.6 1.6-4.2 0-5.8l-9.5-9.5c-1.6-1.6-4.2-1.6-5.8,0-1.6,1.6-1.6,4.2 0,5.8l1.9,1.9-4.5,4.5c-7.6-5.6-16.7-9.1-26.7-9.9v-3.5h9.1c2.3,0 4.1-1.8 4.1-4.1s-1.8-4.1-4.1-4.1h-27c-2.3,0-4.1,1.8-4.1,4.1s1.8,4.1 4.1,4.1h9.7v3.5c-27,2.1-48.2,24.6-48.2,52zm52.2-44c24.3-3.55271e-15 44.1,19.8 44.1,44.1 0,24.3-19.8,44.1-44.1,44.1-24.3,0-44.1-19.8-44.1-44.1 0-24.4 19.8-44.1 44.1-44.1z"
         id="path3729"
         style="fill:#e6e6e6" />
      <path
         d="m64.5,73.6h17.5c2.3,0 4.1-1.8 4.1-4.1 0-2.3-1.8-4.1-4.1-4.1h-13.4v-21.1c0-2.3-1.8-4.1-4.1-4.1-2.3,0-4.1,1.8-4.1,4.1v25.3c0,2.2 1.8,4 4.1,4z"
         id="path3731"
         style="fill:#e6e6e6" />
    </g>
  </g>
</svg>
