<?xml version="1.0" encoding="iso-8859-1"?>
<!-- Generator: Adobe Illustrator 19.0.0, SVG Export Plug-In . SVG Version: 6.00 Build 0)  -->
<svg version="1.1" id="Layer_1" xmlns="http://www.w3.org/2000/svg" xmlns:xlink="http://www.w3.org/1999/xlink" x="0px" y="0px"
	 viewBox="0 0 512 512" style="enable-background:new 0 0 512 512;" xml:space="preserve">
<circle style="fill:#FDDF6D;" cx="214.384" cy="256.001" r="214.384"/>
<path style="fill:#FCC56B;" d="M260.323,438.733c-118.401,0-214.383-95.982-214.383-214.383c0-63.257,27.403-120.107,70.978-159.347
	C47.514,100.49,0,172.695,0,255.998c0,118.401,95.982,214.383,214.383,214.383c55.144,0,105.419-20.827,143.404-55.034
	C328.546,430.297,295.421,438.733,260.323,438.733z"/>
<g>
	<circle style="fill:#7F184C;" cx="177.045" cy="231.557" r="26.164"/>
	<circle style="fill:#7F184C;" cx="324.355" cy="231.557" r="26.164"/>
</g>
<g>
	<path style="fill:#F9A880;" d="M147.679,299.248c-15.921,0-28.828,12.907-28.828,28.827h57.655
		C176.506,312.155,163.6,299.248,147.679,299.248z"/>
	<path style="fill:#F9A880;" d="M373.705,266.049c-15.921,0-28.827,12.907-28.827,28.828h57.655
		C402.534,278.955,389.626,266.049,373.705,266.049z"/>
</g>
<path style="fill:#F2F2F2;" d="M322.104,310.697l-10.199,61.05l63.114-11.408L502.18,222.078
	c13.708-14.611,12.976-37.569-1.636-51.278l0,0c-14.611-13.708-37.569-12.976-51.278,1.636L322.104,310.697z"/>
<path style="fill:#FC4C59;" d="M325.117,366.509c-2.138,0-4.283-0.783-5.965-2.361c-3.513-3.296-3.689-8.814-0.393-12.329
	l143.205-152.644c3.296-3.513,8.814-3.687,12.327-0.393c3.513,3.296,3.689,8.814,0.393,12.329L331.479,363.755
	C329.762,365.585,327.441,366.509,325.117,366.509z"/>
<path style="fill:#7F184C;" d="M184.878,390.849c-2.602,0-5.178-1.159-6.897-3.375c-2.952-3.806-2.261-9.284,1.545-12.237
	c17.188-13.334,47.146-21.619,78.182-21.619c32.444,0,61.581,8.155,77.941,21.815c3.698,3.086,4.192,8.587,1.106,12.283
	c-3.087,3.698-8.588,4.192-12.284,1.105c-13.122-10.955-38.703-17.76-66.763-17.76c-27.353,0-53.213,6.881-67.491,17.957
	C188.627,390.252,186.745,390.849,184.878,390.849z"/>
<path style="fill:#3FA9F5;" d="M373.562,118.397H63.095c-21.202,0-38.39-17.188-38.39-38.39l0,0c0-21.202,17.188-38.39,38.39-38.39
	h310.467c21.202,0,38.39,17.188,38.39,38.39l0,0C411.952,101.209,394.765,118.397,373.562,118.397z"/>
<path style="fill:#3784F4;" d="M79.79,80.006L79.79,80.006c0-21.202,17.188-38.39,38.39-38.39H63.095
	c-21.202,0-38.39,17.188-38.39,38.39l0,0c0,21.202,17.188,38.39,38.39,38.39h55.086C96.979,118.397,79.79,101.209,79.79,80.006z"/>
<ellipse transform="matrix(0.2723 -0.9622 0.9622 0.2723 18.3305 355.7932)" style="fill:#FCEB88;" cx="244.393" cy="165.778" rx="25.001" ry="44.769"/>
<g>
</g>
<g>
</g>
<g>
</g>
<g>
</g>
<g>
</g>
<g>
</g>
<g>
</g>
<g>
</g>
<g>
</g>
<g>
</g>
<g>
</g>
<g>
</g>
<g>
</g>
<g>
</g>
<g>
</g>
</svg>
