
<svg width="1920" height="408" fill="none" xmlns="http://www.w3.org/2000/svg"><mask id="mask0" maskUnits="userSpaceOnUse" x="0" y="0" width="1920" height="408"><path transform="matrix(-1 0 0 1 1920 0)" fill="#E7ECFF" d="M0 0h1920v408H0z"/></mask><g mask="url(#mask0)" fill="#0070AD"><path opacity=".05" d="M-207.142 87.95C310.694 733.102 1200.74 38.11 2085.57-22.454 2315.63-37.943 2546.48-8.356 2765 93.312V634H-293V-30c25.457 38.92 53.918 78.236 85.858 117.95z"/><path opacity=".1" d="M-19.098 202.179c385.414 422.144 1047.858-32.613 1706.408-72.242 171.23-10.134 343.05 9.225 505.69 75.75V589H-83V125c18.947 25.466 40.13 51.192 63.902 77.179z"/></g></svg>