<svg width="1023" height="1132" viewBox="0 0 1023 1132" fill="none" xmlns="http://www.w3.org/2000/svg">
<path opacity="0.5" d="M318.635 57.6942C198.697 158.217 180.111 348.298 98.8809 488.527C70.6041 537.322 34.0667 580.992 15.0036 635.123C-28.7619 759.026 31.472 899.572 112.093 997.981C150.536 1044.93 195.44 1087.94 249.77 1107.72C291.55 1122.94 336.348 1123.57 380.325 1123.97L1150.79 1131.9C1236.81 1132.77 1332.39 1129.62 1394.24 1063.21C1436.87 1017.48 1454.18 950.692 1468.88 886.944C1486.93 808.613 1503.3 723.546 1475.2 648.94C1443.11 563.582 1361.96 515.21 1311.55 441.555C1229.74 322.223 1231.62 141.731 1127.44 46.4664C1078.8 2.00407 1014.62 -15.4321 952.083 -24.1502C834.184 -40.6089 722.506 -9.5408 606.725 -13.8734C507.756 -17.572 400.739 -11.1259 318.635 57.6942Z" fill="#F5BBFF"/>
</svg>
